<mxfile host="app.diagrams.net" modified="2021-10-05T20:27:25.948Z" agent="5.0 (Windows NT 10.0; Win64; x64) AppleWebKit/537.36 (KHTML, like Gecko) Chrome/93.0.4577.82 Safari/537.36 OPR/79.0.4143.73" etag="B75Q5pdSLcH5O_TMHM3b" version="15.3.5" type="github">
  <diagram id="BNYhW4qLJf6dbQhoZxtP" name="Page-1">
    <mxGraphModel dx="2249" dy="1933" grid="0" gridSize="10" guides="1" tooltips="1" connect="1" arrows="1" fold="1" page="1" pageScale="1" pageWidth="827" pageHeight="1169" math="0" shadow="0">
      <root>
        <mxCell id="0" />
        <mxCell id="1" parent="0" />
        <mxCell id="Z32YWCErlfc_Y4S0Vm6A-4" style="edgeStyle=none;curved=1;rounded=0;orthogonalLoop=1;jettySize=auto;html=1;exitX=1;exitY=0.3333333333333333;exitDx=0;exitDy=0;exitPerimeter=0;endArrow=open;startSize=14;endSize=14;sourcePerimeterSpacing=8;targetPerimeterSpacing=8;" edge="1" parent="1" source="Z32YWCErlfc_Y4S0Vm6A-1" target="Z32YWCErlfc_Y4S0Vm6A-20">
          <mxGeometry relative="1" as="geometry">
            <mxPoint x="-667" y="-1143" as="targetPoint" />
          </mxGeometry>
        </mxCell>
        <mxCell id="Z32YWCErlfc_Y4S0Vm6A-8" value="вход на сайт" style="edgeLabel;html=1;align=center;verticalAlign=middle;resizable=0;points=[];" vertex="1" connectable="0" parent="Z32YWCErlfc_Y4S0Vm6A-4">
          <mxGeometry x="-0.2542" y="-2" relative="1" as="geometry">
            <mxPoint as="offset" />
          </mxGeometry>
        </mxCell>
        <mxCell id="Z32YWCErlfc_Y4S0Vm6A-1" value="Actor" style="shape=umlActor;verticalLabelPosition=bottom;verticalAlign=top;html=1;outlineConnect=0;hachureGap=4;pointerEvents=0;" vertex="1" parent="1">
          <mxGeometry x="-821" y="-1165" width="30" height="60" as="geometry" />
        </mxCell>
        <mxCell id="Z32YWCErlfc_Y4S0Vm6A-9" value="" style="rounded=0;whiteSpace=wrap;html=1;hachureGap=4;pointerEvents=0;" vertex="1" parent="1">
          <mxGeometry x="-510" y="-1163" width="342" height="382" as="geometry" />
        </mxCell>
        <mxCell id="Z32YWCErlfc_Y4S0Vm6A-12" value="Главная" style="rounded=1;whiteSpace=wrap;html=1;hachureGap=4;pointerEvents=0;fillColor=#f8cecc;strokeColor=#b85450;" vertex="1" parent="1">
          <mxGeometry x="-502" y="-1156" width="94" height="40" as="geometry" />
        </mxCell>
        <mxCell id="Z32YWCErlfc_Y4S0Vm6A-14" value="Новости" style="rounded=1;whiteSpace=wrap;html=1;hachureGap=4;pointerEvents=0;fillColor=#dae8fc;strokeColor=#6c8ebf;" vertex="1" parent="1">
          <mxGeometry x="-386" y="-1156" width="94" height="40" as="geometry" />
        </mxCell>
        <mxCell id="Z32YWCErlfc_Y4S0Vm6A-59" style="edgeStyle=none;curved=1;rounded=0;orthogonalLoop=1;jettySize=auto;html=1;exitX=1;exitY=0.5;exitDx=0;exitDy=0;endArrow=open;startSize=14;endSize=14;sourcePerimeterSpacing=8;targetPerimeterSpacing=8;fillColor=#d5e8d4;strokeColor=#82b366;" edge="1" parent="1" source="Z32YWCErlfc_Y4S0Vm6A-15">
          <mxGeometry relative="1" as="geometry">
            <mxPoint x="61" y="-1021" as="targetPoint" />
          </mxGeometry>
        </mxCell>
        <mxCell id="Z32YWCErlfc_Y4S0Vm6A-15" value="Форум" style="rounded=1;whiteSpace=wrap;html=1;hachureGap=4;pointerEvents=0;fillColor=#d5e8d4;strokeColor=#82b366;" vertex="1" parent="1">
          <mxGeometry x="-271" y="-1156" width="94" height="40" as="geometry" />
        </mxCell>
        <mxCell id="Z32YWCErlfc_Y4S0Vm6A-35" style="edgeStyle=none;curved=1;rounded=0;orthogonalLoop=1;jettySize=auto;html=1;exitX=0;exitY=0.5;exitDx=0;exitDy=0;endArrow=open;startSize=14;endSize=14;sourcePerimeterSpacing=8;targetPerimeterSpacing=8;fillColor=#dae8fc;strokeColor=#6c8ebf;entryX=0.462;entryY=-0.013;entryDx=0;entryDy=0;entryPerimeter=0;" edge="1" parent="1" source="Z32YWCErlfc_Y4S0Vm6A-14" target="Z32YWCErlfc_Y4S0Vm6A-25">
          <mxGeometry relative="1" as="geometry">
            <mxPoint x="-771" y="-735" as="targetPoint" />
          </mxGeometry>
        </mxCell>
        <mxCell id="Z32YWCErlfc_Y4S0Vm6A-17" value="Основной текст" style="rounded=0;whiteSpace=wrap;html=1;hachureGap=4;pointerEvents=0;" vertex="1" parent="1">
          <mxGeometry x="-495" y="-1098" width="177" height="241" as="geometry" />
        </mxCell>
        <mxCell id="Z32YWCErlfc_Y4S0Vm6A-18" value="Боковая панель" style="rounded=0;whiteSpace=wrap;html=1;hachureGap=4;pointerEvents=0;" vertex="1" parent="1">
          <mxGeometry x="-306" y="-1098" width="120" height="189" as="geometry" />
        </mxCell>
        <mxCell id="Z32YWCErlfc_Y4S0Vm6A-19" value="Футер" style="rounded=0;whiteSpace=wrap;html=1;hachureGap=4;pointerEvents=0;" vertex="1" parent="1">
          <mxGeometry x="-496" y="-849" width="310" height="60" as="geometry" />
        </mxCell>
        <mxCell id="Z32YWCErlfc_Y4S0Vm6A-32" style="edgeStyle=none;curved=1;rounded=0;orthogonalLoop=1;jettySize=auto;html=1;exitX=1;exitY=0.5;exitDx=0;exitDy=0;endArrow=open;startSize=14;endSize=14;sourcePerimeterSpacing=8;targetPerimeterSpacing=8;fillColor=#f8cecc;strokeColor=#b85450;" edge="1" parent="1" source="Z32YWCErlfc_Y4S0Vm6A-20">
          <mxGeometry relative="1" as="geometry">
            <mxPoint x="-512" y="-1141" as="targetPoint" />
          </mxGeometry>
        </mxCell>
        <mxCell id="Z32YWCErlfc_Y4S0Vm6A-20" value="Главная" style="rounded=1;whiteSpace=wrap;html=1;hachureGap=4;pointerEvents=0;fillColor=#f8cecc;strokeColor=#b85450;" vertex="1" parent="1">
          <mxGeometry x="-644" y="-1160" width="88" height="38" as="geometry" />
        </mxCell>
        <mxCell id="Z32YWCErlfc_Y4S0Vm6A-25" value="" style="rounded=0;whiteSpace=wrap;html=1;hachureGap=4;pointerEvents=0;" vertex="1" parent="1">
          <mxGeometry x="-806" y="-730" width="342" height="382" as="geometry" />
        </mxCell>
        <mxCell id="Z32YWCErlfc_Y4S0Vm6A-26" value="Главная" style="rounded=1;whiteSpace=wrap;html=1;hachureGap=4;pointerEvents=0;fillColor=#f8cecc;strokeColor=#b85450;" vertex="1" parent="1">
          <mxGeometry x="-798" y="-723" width="94" height="40" as="geometry" />
        </mxCell>
        <mxCell id="Z32YWCErlfc_Y4S0Vm6A-27" value="Новости" style="rounded=1;whiteSpace=wrap;html=1;hachureGap=4;pointerEvents=0;fillColor=#dae8fc;strokeColor=#6c8ebf;" vertex="1" parent="1">
          <mxGeometry x="-682" y="-723" width="94" height="40" as="geometry" />
        </mxCell>
        <mxCell id="Z32YWCErlfc_Y4S0Vm6A-28" value="Форум" style="rounded=1;whiteSpace=wrap;html=1;hachureGap=4;pointerEvents=0;fillColor=#d5e8d4;strokeColor=#82b366;" vertex="1" parent="1">
          <mxGeometry x="-567" y="-723" width="94" height="40" as="geometry" />
        </mxCell>
        <mxCell id="Z32YWCErlfc_Y4S0Vm6A-34" value="Футер" style="rounded=0;whiteSpace=wrap;html=1;hachureGap=4;pointerEvents=0;" vertex="1" parent="1">
          <mxGeometry x="-791" y="-416" width="310" height="60" as="geometry" />
        </mxCell>
        <mxCell id="Z32YWCErlfc_Y4S0Vm6A-36" value="Главное за сегодня" style="rounded=0;whiteSpace=wrap;html=1;hachureGap=4;pointerEvents=0;" vertex="1" parent="1">
          <mxGeometry x="-793" y="-667" width="227" height="124" as="geometry" />
        </mxCell>
        <mxCell id="Z32YWCErlfc_Y4S0Vm6A-38" value="Популярные новости&lt;br&gt;&lt;br&gt;&lt;br&gt;&lt;br&gt;&lt;br&gt;&lt;br&gt;" style="rounded=0;whiteSpace=wrap;html=1;hachureGap=4;pointerEvents=0;" vertex="1" parent="1">
          <mxGeometry x="-558" y="-667" width="85" height="123" as="geometry" />
        </mxCell>
        <mxCell id="Z32YWCErlfc_Y4S0Vm6A-48" style="edgeStyle=none;curved=1;rounded=0;orthogonalLoop=1;jettySize=auto;html=1;exitX=1;exitY=0.5;exitDx=0;exitDy=0;entryX=0.006;entryY=0.27;entryDx=0;entryDy=0;entryPerimeter=0;endArrow=open;startSize=14;endSize=14;sourcePerimeterSpacing=8;targetPerimeterSpacing=8;" edge="1" parent="1" source="Z32YWCErlfc_Y4S0Vm6A-39" target="Z32YWCErlfc_Y4S0Vm6A-47">
          <mxGeometry relative="1" as="geometry" />
        </mxCell>
        <mxCell id="Z32YWCErlfc_Y4S0Vm6A-39" value="&lt;span style=&quot;color: rgba(0 , 0 , 0 , 0) ; font-family: monospace ; font-size: 0px&quot;&gt;%3CmxGraphModel%3E%3Croot%3E%3CmxCell%20id%3D%220%22%2F%3E%3CmxCell%20id%3D%221%22%20parent%3D%220%22%2F%3E%3CmxCell%20id%3D%222%22%20value%3D%22%D0%BD%D0%BE%D0%B2%D0%BE%D1%81%D1%82%D1%8C%203%22%20style%3D%22rounded%3D1%3BwhiteSpace%3Dwrap%3Bhtml%3D1%3Bsketch%3D0%3BhachureGap%3D4%3BpointerEvents%3D0%3BfontColor%3D%23E4FDE1%3BstrokeColor%3D%23028090%3BfillColor%3D%23F45B69%3B%22%20vertex%3D%221%22%20parent%3D%221%22%3E%3CmxGeometry%20x%3D%22134%22%20y%3D%22445%22%20width%3D%2279%22%20height%3D%2242%22%20as%3D%22geometry%22%2F%3E%3C%2FmxCell%3E%3C%2Froot%3E%3C%2FmxGraphModel%3E&lt;/span&gt;новость 1" style="rounded=0;whiteSpace=wrap;html=1;hachureGap=4;pointerEvents=0;" vertex="1" parent="1">
          <mxGeometry x="-551" y="-617" width="70" height="16" as="geometry" />
        </mxCell>
        <mxCell id="Z32YWCErlfc_Y4S0Vm6A-49" style="edgeStyle=none;curved=1;rounded=0;orthogonalLoop=1;jettySize=auto;html=1;exitX=1;exitY=0.5;exitDx=0;exitDy=0;endArrow=open;startSize=14;endSize=14;sourcePerimeterSpacing=8;targetPerimeterSpacing=8;" edge="1" parent="1" source="Z32YWCErlfc_Y4S0Vm6A-40">
          <mxGeometry relative="1" as="geometry">
            <mxPoint x="-406" y="-628" as="targetPoint" />
          </mxGeometry>
        </mxCell>
        <mxCell id="Z32YWCErlfc_Y4S0Vm6A-40" value="&lt;span style=&quot;color: rgba(0 , 0 , 0 , 0) ; font-family: monospace ; font-size: 0px&quot;&gt;%3CmxGraphModel%3E%3Croot%3E%3CmxCell%20id%3D%220%22%2F%3E%3CmxCell%20id%3D%221%22%20parent%3D%220%22%2F%3E%3CmxCell%20id%3D%222%22%20value%3D%22%D0%BD%D0%BE%D0%B2%D0%BE%D1%81%D1%82%D1%8C%203%22%20style%3D%22rounded%3D1%3BwhiteSpace%3Dwrap%3Bhtml%3D1%3Bsketch%3D0%3BhachureGap%3D4%3BpointerEvents%3D0%3BfontColor%3D%23E4FDE1%3BstrokeColor%3D%23028090%3BfillColor%3D%23F45B69%3B%22%20vertex%3D%221%22%20parent%3D%221%22%3E%3CmxGeometry%20x%3D%22134%22%20y%3D%22445%22%20width%3D%2279%22%20height%3D%2242%22%20as%3D%22geometry%22%2F%3E%3C%2FmxCell%3E%3C%2Froot%3E%3C%2FmxGraphModel%3E&lt;/span&gt;новость 2" style="rounded=0;whiteSpace=wrap;html=1;hachureGap=4;pointerEvents=0;" vertex="1" parent="1">
          <mxGeometry x="-551" y="-596" width="70" height="16" as="geometry" />
        </mxCell>
        <mxCell id="Z32YWCErlfc_Y4S0Vm6A-50" style="edgeStyle=none;curved=1;rounded=0;orthogonalLoop=1;jettySize=auto;html=1;exitX=1;exitY=0.5;exitDx=0;exitDy=0;entryX=0;entryY=0.27;entryDx=0;entryDy=0;entryPerimeter=0;endArrow=open;startSize=14;endSize=14;sourcePerimeterSpacing=8;targetPerimeterSpacing=8;" edge="1" parent="1" source="Z32YWCErlfc_Y4S0Vm6A-41" target="Z32YWCErlfc_Y4S0Vm6A-47">
          <mxGeometry relative="1" as="geometry" />
        </mxCell>
        <mxCell id="Z32YWCErlfc_Y4S0Vm6A-41" value="&lt;span style=&quot;color: rgba(0 , 0 , 0 , 0) ; font-family: monospace ; font-size: 0px&quot;&gt;%3CmxGraphModel%3E%3Croot%3E%3CmxCell%20id%3D%220%22%2F%3E%3CmxCell%20id%3D%221%22%20parent%3D%220%22%2F%3E%3CmxCell%20id%3D%222%22%20value%3D%22%D0%BD%D0%BE%D0%B2%D0%BE%D1%81%D1%82%D1%8C%203%22%20style%3D%22rounded%3D1%3BwhiteSpace%3Dwrap%3Bhtml%3D1%3Bsketch%3D0%3BhachureGap%3D4%3BpointerEvents%3D0%3BfontColor%3D%23E4FDE1%3BstrokeColor%3D%23028090%3BfillColor%3D%23F45B69%3B%22%20vertex%3D%221%22%20parent%3D%221%22%3E%3CmxGeometry%20x%3D%22134%22%20y%3D%22445%22%20width%3D%2279%22%20height%3D%2242%22%20as%3D%22geometry%22%2F%3E%3C%2FmxCell%3E%3C%2Froot%3E%3C%2FmxGraphModel%3E&lt;/span&gt;новость 3" style="rounded=0;whiteSpace=wrap;html=1;hachureGap=4;pointerEvents=0;" vertex="1" parent="1">
          <mxGeometry x="-550.5" y="-575" width="70" height="16" as="geometry" />
        </mxCell>
        <mxCell id="Z32YWCErlfc_Y4S0Vm6A-42" value="Последние новости&lt;br&gt;&lt;br&gt;&lt;br&gt;&lt;br&gt;&lt;br&gt;" style="rounded=0;whiteSpace=wrap;html=1;hachureGap=4;pointerEvents=0;" vertex="1" parent="1">
          <mxGeometry x="-793" y="-535" width="319" height="92" as="geometry" />
        </mxCell>
        <mxCell id="Z32YWCErlfc_Y4S0Vm6A-51" style="edgeStyle=none;curved=1;rounded=0;orthogonalLoop=1;jettySize=auto;html=1;exitX=1;exitY=0.5;exitDx=0;exitDy=0;entryX=-0.006;entryY=0.28;entryDx=0;entryDy=0;entryPerimeter=0;endArrow=open;startSize=14;endSize=14;sourcePerimeterSpacing=8;targetPerimeterSpacing=8;" edge="1" parent="1" source="Z32YWCErlfc_Y4S0Vm6A-43" target="Z32YWCErlfc_Y4S0Vm6A-47">
          <mxGeometry relative="1" as="geometry" />
        </mxCell>
        <mxCell id="Z32YWCErlfc_Y4S0Vm6A-43" value="новость n" style="rounded=0;whiteSpace=wrap;html=1;hachureGap=4;pointerEvents=0;" vertex="1" parent="1">
          <mxGeometry x="-790" y="-509" width="313" height="17" as="geometry" />
        </mxCell>
        <mxCell id="Z32YWCErlfc_Y4S0Vm6A-52" style="edgeStyle=none;curved=1;rounded=0;orthogonalLoop=1;jettySize=auto;html=1;exitX=1;exitY=0.5;exitDx=0;exitDy=0;entryX=0.006;entryY=0.285;entryDx=0;entryDy=0;entryPerimeter=0;endArrow=open;startSize=14;endSize=14;sourcePerimeterSpacing=8;targetPerimeterSpacing=8;" edge="1" parent="1" source="Z32YWCErlfc_Y4S0Vm6A-44" target="Z32YWCErlfc_Y4S0Vm6A-47">
          <mxGeometry relative="1" as="geometry" />
        </mxCell>
        <mxCell id="Z32YWCErlfc_Y4S0Vm6A-44" value="новость n-1" style="rounded=0;whiteSpace=wrap;html=1;hachureGap=4;pointerEvents=0;" vertex="1" parent="1">
          <mxGeometry x="-790" y="-487" width="313" height="17" as="geometry" />
        </mxCell>
        <mxCell id="Z32YWCErlfc_Y4S0Vm6A-53" style="edgeStyle=none;curved=1;rounded=0;orthogonalLoop=1;jettySize=auto;html=1;exitX=1;exitY=0.5;exitDx=0;exitDy=0;endArrow=open;startSize=14;endSize=14;sourcePerimeterSpacing=8;targetPerimeterSpacing=8;" edge="1" parent="1" source="Z32YWCErlfc_Y4S0Vm6A-45">
          <mxGeometry relative="1" as="geometry">
            <mxPoint x="-405" y="-619" as="targetPoint" />
          </mxGeometry>
        </mxCell>
        <mxCell id="Z32YWCErlfc_Y4S0Vm6A-45" value="новость 1" style="rounded=0;whiteSpace=wrap;html=1;hachureGap=4;pointerEvents=0;" vertex="1" parent="1">
          <mxGeometry x="-790" y="-465" width="313" height="16" as="geometry" />
        </mxCell>
        <mxCell id="Z32YWCErlfc_Y4S0Vm6A-47" value="" style="rounded=0;whiteSpace=wrap;html=1;hachureGap=4;pointerEvents=0;" vertex="1" parent="1">
          <mxGeometry x="-410" y="-730" width="342" height="382" as="geometry" />
        </mxCell>
        <mxCell id="Z32YWCErlfc_Y4S0Vm6A-54" value="Главная" style="rounded=1;whiteSpace=wrap;html=1;hachureGap=4;pointerEvents=0;fillColor=#f8cecc;strokeColor=#b85450;" vertex="1" parent="1">
          <mxGeometry x="-401.5" y="-723" width="94" height="40" as="geometry" />
        </mxCell>
        <mxCell id="Z32YWCErlfc_Y4S0Vm6A-55" value="Новости" style="rounded=1;whiteSpace=wrap;html=1;hachureGap=4;pointerEvents=0;fillColor=#dae8fc;strokeColor=#6c8ebf;" vertex="1" parent="1">
          <mxGeometry x="-285.5" y="-723" width="94" height="40" as="geometry" />
        </mxCell>
        <mxCell id="Z32YWCErlfc_Y4S0Vm6A-56" value="Форум" style="rounded=1;whiteSpace=wrap;html=1;hachureGap=4;pointerEvents=0;fillColor=#d5e8d4;strokeColor=#82b366;" vertex="1" parent="1">
          <mxGeometry x="-170.5" y="-723" width="94" height="40" as="geometry" />
        </mxCell>
        <mxCell id="Z32YWCErlfc_Y4S0Vm6A-57" value="Страница с новостью" style="rounded=0;whiteSpace=wrap;html=1;hachureGap=4;pointerEvents=0;" vertex="1" parent="1">
          <mxGeometry x="-393" y="-667" width="310" height="243" as="geometry" />
        </mxCell>
        <mxCell id="Z32YWCErlfc_Y4S0Vm6A-58" value="Футер" style="rounded=0;whiteSpace=wrap;html=1;hachureGap=4;pointerEvents=0;" vertex="1" parent="1">
          <mxGeometry x="-394" y="-416" width="310" height="60" as="geometry" />
        </mxCell>
        <mxCell id="Z32YWCErlfc_Y4S0Vm6A-61" value="" style="rounded=0;whiteSpace=wrap;html=1;hachureGap=4;pointerEvents=0;" vertex="1" parent="1">
          <mxGeometry x="63" y="-1090" width="342" height="382" as="geometry" />
        </mxCell>
        <mxCell id="Z32YWCErlfc_Y4S0Vm6A-62" value="Главная" style="rounded=1;whiteSpace=wrap;html=1;hachureGap=4;pointerEvents=0;fillColor=#f8cecc;strokeColor=#b85450;" vertex="1" parent="1">
          <mxGeometry x="71.5" y="-1083" width="94" height="40" as="geometry" />
        </mxCell>
        <mxCell id="Z32YWCErlfc_Y4S0Vm6A-63" value="Новости" style="rounded=1;whiteSpace=wrap;html=1;hachureGap=4;pointerEvents=0;fillColor=#dae8fc;strokeColor=#6c8ebf;" vertex="1" parent="1">
          <mxGeometry x="187.5" y="-1083" width="94" height="40" as="geometry" />
        </mxCell>
        <mxCell id="Z32YWCErlfc_Y4S0Vm6A-64" value="Форум" style="rounded=1;whiteSpace=wrap;html=1;hachureGap=4;pointerEvents=0;fillColor=#d5e8d4;strokeColor=#82b366;" vertex="1" parent="1">
          <mxGeometry x="302.5" y="-1083" width="94" height="40" as="geometry" />
        </mxCell>
        <mxCell id="Z32YWCErlfc_Y4S0Vm6A-80" style="edgeStyle=none;curved=1;rounded=0;orthogonalLoop=1;jettySize=auto;html=1;exitX=1;exitY=0.5;exitDx=0;exitDy=0;entryX=0;entryY=0.27;entryDx=0;entryDy=0;entryPerimeter=0;endArrow=open;startSize=14;endSize=14;sourcePerimeterSpacing=8;targetPerimeterSpacing=8;" edge="1" parent="1" source="Z32YWCErlfc_Y4S0Vm6A-65" target="Z32YWCErlfc_Y4S0Vm6A-74">
          <mxGeometry relative="1" as="geometry" />
        </mxCell>
        <mxCell id="Z32YWCErlfc_Y4S0Vm6A-65" value="Тема n" style="rounded=0;whiteSpace=wrap;html=1;hachureGap=4;pointerEvents=0;" vertex="1" parent="1">
          <mxGeometry x="76" y="-1026" width="317" height="54" as="geometry" />
        </mxCell>
        <mxCell id="Z32YWCErlfc_Y4S0Vm6A-66" value="Футер" style="rounded=0;whiteSpace=wrap;html=1;hachureGap=4;pointerEvents=0;" vertex="1" parent="1">
          <mxGeometry x="79" y="-776" width="310" height="60" as="geometry" />
        </mxCell>
        <mxCell id="Z32YWCErlfc_Y4S0Vm6A-81" style="edgeStyle=none;curved=1;rounded=0;orthogonalLoop=1;jettySize=auto;html=1;exitX=1;exitY=0.5;exitDx=0;exitDy=0;entryX=0;entryY=0.309;entryDx=0;entryDy=0;entryPerimeter=0;endArrow=open;startSize=14;endSize=14;sourcePerimeterSpacing=8;targetPerimeterSpacing=8;" edge="1" parent="1" source="Z32YWCErlfc_Y4S0Vm6A-67" target="Z32YWCErlfc_Y4S0Vm6A-74">
          <mxGeometry relative="1" as="geometry" />
        </mxCell>
        <mxCell id="Z32YWCErlfc_Y4S0Vm6A-67" value="Тема n-1" style="rounded=0;whiteSpace=wrap;html=1;hachureGap=4;pointerEvents=0;" vertex="1" parent="1">
          <mxGeometry x="76" y="-963" width="317" height="62" as="geometry" />
        </mxCell>
        <mxCell id="Z32YWCErlfc_Y4S0Vm6A-82" style="edgeStyle=none;curved=1;rounded=0;orthogonalLoop=1;jettySize=auto;html=1;exitX=1;exitY=0.5;exitDx=0;exitDy=0;endArrow=open;startSize=14;endSize=14;sourcePerimeterSpacing=8;targetPerimeterSpacing=8;entryX=-0.003;entryY=0.479;entryDx=0;entryDy=0;entryPerimeter=0;" edge="1" parent="1" source="Z32YWCErlfc_Y4S0Vm6A-68" target="Z32YWCErlfc_Y4S0Vm6A-74">
          <mxGeometry relative="1" as="geometry">
            <mxPoint x="436" y="-919" as="targetPoint" />
          </mxGeometry>
        </mxCell>
        <mxCell id="Z32YWCErlfc_Y4S0Vm6A-68" value="Тема 1" style="rounded=0;whiteSpace=wrap;html=1;hachureGap=4;pointerEvents=0;" vertex="1" parent="1">
          <mxGeometry x="76" y="-893" width="317" height="62" as="geometry" />
        </mxCell>
        <mxCell id="Z32YWCErlfc_Y4S0Vm6A-71" value="Страница с новостью" style="rounded=0;whiteSpace=wrap;html=1;hachureGap=4;pointerEvents=0;" vertex="1" parent="1">
          <mxGeometry x="-393" y="-667" width="310" height="243" as="geometry" />
        </mxCell>
        <mxCell id="Z32YWCErlfc_Y4S0Vm6A-72" value="Форум" style="rounded=1;whiteSpace=wrap;html=1;hachureGap=4;pointerEvents=0;fillColor=#d5e8d4;strokeColor=#82b366;" vertex="1" parent="1">
          <mxGeometry x="-170.5" y="-723" width="94" height="40" as="geometry" />
        </mxCell>
        <mxCell id="Z32YWCErlfc_Y4S0Vm6A-73" value="Новости" style="rounded=1;whiteSpace=wrap;html=1;hachureGap=4;pointerEvents=0;fillColor=#dae8fc;strokeColor=#6c8ebf;" vertex="1" parent="1">
          <mxGeometry x="-285.5" y="-723" width="94" height="40" as="geometry" />
        </mxCell>
        <mxCell id="Z32YWCErlfc_Y4S0Vm6A-74" value="" style="rounded=0;whiteSpace=wrap;html=1;hachureGap=4;pointerEvents=0;" vertex="1" parent="1">
          <mxGeometry x="440" y="-1090" width="342" height="382" as="geometry" />
        </mxCell>
        <mxCell id="Z32YWCErlfc_Y4S0Vm6A-75" value="Главная" style="rounded=1;whiteSpace=wrap;html=1;hachureGap=4;pointerEvents=0;fillColor=#f8cecc;strokeColor=#b85450;" vertex="1" parent="1">
          <mxGeometry x="448.5" y="-1083" width="94" height="40" as="geometry" />
        </mxCell>
        <mxCell id="Z32YWCErlfc_Y4S0Vm6A-76" value="Футер" style="rounded=0;whiteSpace=wrap;html=1;hachureGap=4;pointerEvents=0;" vertex="1" parent="1">
          <mxGeometry x="456" y="-776" width="310" height="60" as="geometry" />
        </mxCell>
        <mxCell id="Z32YWCErlfc_Y4S0Vm6A-77" value="Страница с беседой по данной теме" style="rounded=0;whiteSpace=wrap;html=1;hachureGap=4;pointerEvents=0;" vertex="1" parent="1">
          <mxGeometry x="457" y="-1027" width="310" height="243" as="geometry" />
        </mxCell>
        <mxCell id="Z32YWCErlfc_Y4S0Vm6A-78" value="Форум" style="rounded=1;whiteSpace=wrap;html=1;hachureGap=4;pointerEvents=0;fillColor=#d5e8d4;strokeColor=#82b366;" vertex="1" parent="1">
          <mxGeometry x="679.5" y="-1083" width="94" height="40" as="geometry" />
        </mxCell>
        <mxCell id="Z32YWCErlfc_Y4S0Vm6A-79" value="Новости" style="rounded=1;whiteSpace=wrap;html=1;hachureGap=4;pointerEvents=0;fillColor=#dae8fc;strokeColor=#6c8ebf;" vertex="1" parent="1">
          <mxGeometry x="564.5" y="-1083" width="94" height="40" as="geometry" />
        </mxCell>
      </root>
    </mxGraphModel>
  </diagram>
</mxfile>
